<?xml version="1.0" encoding="UTF-8"?>
<svg width="360px" height="220px" viewBox="0 0 360 220" version="1.1" xmlns="http://www.w3.org/2000/svg" xmlns:xlink="http://www.w3.org/1999/xlink">
    <!-- Generator: Sketch 46.2 (44496) - http://www.bohemiancoding.com/sketch -->
    <title>Group 4</title>
    <desc>Created with Sketch.</desc>
    <defs></defs>
    <g id="Welcome" stroke="none" stroke-width="1" fill="none" fill-rule="evenodd">
        <g id="Desktop-HD" transform="translate(-407.000000, -125.000000)">
            <g id="Group-4" transform="translate(407.000000, 125.000000)">
                <path d="M46.5807013,67.1074703 L32.7428106,67.1074703 L32.7428106,30.4687985 L46.6314825,30.4687985 C49.7630086,30.4687985 52.297814,31.3066807 54.2359747,32.9824703 C56.1741354,34.65826 57.1432013,36.8672223 57.1432013,39.6094235 C57.1432013,41.5052663 56.5296006,43.2318115 55.302381,44.789111 C54.0751613,46.3464104 52.5813611,47.2858542 50.8209356,47.6074703 L50.8209356,47.8105953 C53.3092293,48.1322115 55.29391,49.1055091 56.7750372,50.7305172 C58.2561644,52.3555253 58.9967169,54.386755 58.9967169,56.8242672 C58.9967169,60.0404291 57.9006992,62.5583076 55.708631,64.3779782 C53.5165627,66.1976487 50.4739499,67.1074703 46.5807013,67.1074703 Z M37.3131231,34.5059078 L37.3131231,46.2617672 L44.1685919,46.2617672 C46.8769388,46.2617672 48.946254,45.7370329 50.3765997,44.6875485 C51.8069454,43.6380641 52.5221075,42.1231052 52.5221075,40.1426266 C52.5221075,38.3314196 51.9212021,36.9391809 50.7193731,35.9658688 C49.5175442,34.9925566 47.8079259,34.5059078 45.5904669,34.5059078 L37.3131231,34.5059078 Z M37.3131231,63.070361 L45.8951544,63.070361 C48.6542828,63.070361 50.7447567,62.5202363 52.1666388,61.4199703 C53.5885209,60.3197044 54.2994513,58.7116476 54.2994513,56.5957516 C54.2994513,54.4798556 53.5588988,52.884494 52.0777716,51.8096188 C50.5966444,50.7347436 48.3919138,50.1973141 45.4635138,50.1973141 L37.3131231,50.1973141 L37.3131231,63.070361 Z M86.7232794,62.9941891 L69.0514044,62.9941891 L69.0514044,30.4687985 L64.4810919,30.4687985 L64.4810919,67.1074703 L86.7232794,67.1074703 L86.7232794,62.9941891 Z M115.871717,67.1074703 L115.313123,65.5205563 C114.940725,64.4626083 114.513321,63.2438705 114.030897,61.8643063 C113.548472,60.4847421 113.121068,59.2660043 112.74867,58.2080563 L112.190076,56.6211422 L97.6158575,56.6211422 L93.9342169,67.1074703 L89.1353888,67.1074703 L102.643201,30.4687985 L107.162733,30.4687985 L120.670545,67.1074703 L115.871717,67.1074703 Z M104.826795,36.0293453 L104.230115,37.7178219 C103.832327,38.8434786 103.345678,40.2357173 102.770154,41.8945797 C102.194631,43.5534422 101.614884,45.2122798 101.030897,46.8711422 C100.446909,48.5300047 99.9560288,49.9222434 99.5582403,51.0479 L98.9615606,52.7363766 L110.844373,52.7363766 L104.979139,36.0293453 L104.826795,36.0293453 Z M140.246717,67.7168453 C144.29231,67.7168453 147.631144,66.7435478 150.263318,64.7969235 C152.895493,62.8502992 154.62627,60.0658218 155.455701,56.4434078 L150.834608,56.4434078 C150.174448,58.677794 148.921856,60.4128027 147.076795,61.648486 C145.231734,62.8841692 142.963527,63.5020016 140.272108,63.5020016 C136.649694,63.5020016 133.772118,62.1690071 131.639295,59.5029782 C129.506472,56.8369492 128.440076,53.2611386 128.440076,48.7754391 C128.440076,44.3235939 129.514935,40.7604785 131.664686,38.085986 C133.814436,35.4114934 136.675084,34.0742672 140.246717,34.0742672 C142.870428,34.0742672 145.147098,34.7978928 147.076795,36.2451657 C149.006492,37.6924385 150.259084,39.617875 150.834608,42.0215328 L155.455701,42.0215328 C154.880178,38.3652646 153.200181,35.4242132 150.415662,33.1982907 C147.631143,30.9723681 144.241529,29.8594235 140.246717,29.8594235 C135.236275,29.8594235 131.23306,31.5732735 128.236951,35.001025 C125.240843,38.4287765 123.742811,43.020202 123.742811,48.7754391 C123.742811,54.5814577 125.232379,59.1898101 128.211561,62.6006344 C131.190742,66.0114588 135.202421,67.7168453 140.246717,67.7168453 Z M165.713514,67.1074703 L165.713514,54.3105953 L169.674451,49.9434078 L183.410779,67.1074703 L189.250623,67.1074703 L172.848279,46.6934078 L187.90492,30.4687985 L182.141248,30.4687985 L165.96742,48.3437985 L165.713514,48.3437985 L165.713514,30.4687985 L161.143201,30.4687985 L161.143201,67.1074703 L165.713514,67.1074703 Z M218.246717,67.1074703 L218.246717,34.5820797 L229.799451,34.5820797 L229.799451,30.4687985 L202.12367,30.4687985 L202.12367,34.5820797 L213.676404,34.5820797 L213.676404,67.1074703 L218.246717,67.1074703 Z M239.49867,67.1074703 L239.49867,30.4687985 L234.928358,30.4687985 L234.928358,67.1074703 L239.49867,67.1074703 Z M269.611951,62.9941891 L251.483045,62.9941891 L251.483045,50.4004391 L268.672498,50.4004391 L268.672498,46.3379391 L251.483045,46.3379391 L251.483045,34.5820797 L269.611951,34.5820797 L269.611951,30.4687985 L246.912733,30.4687985 L246.912733,67.1074703 L269.611951,67.1074703 L269.611951,62.9941891 Z M46.5807013,128.10747 L32.7428106,128.10747 L32.7428106,91.4687985 L46.6314825,91.4687985 C49.7630086,91.4687985 52.297814,92.3066807 54.2359747,93.9824703 C56.1741354,95.65826 57.1432013,97.8672223 57.1432013,100.609423 C57.1432013,102.505266 56.5296006,104.231812 55.302381,105.789111 C54.0751613,107.34641 52.5813611,108.285854 50.8209356,108.60747 L50.8209356,108.810595 C53.3092293,109.132212 55.29391,110.105509 56.7750372,111.730517 C58.2561644,113.355525 58.9967169,115.386755 58.9967169,117.824267 C58.9967169,121.040429 57.9006992,123.558308 55.708631,125.377978 C53.5165627,127.197649 50.4739499,128.10747 46.5807013,128.10747 Z M37.3131231,95.5059078 L37.3131231,107.261767 L44.1685919,107.261767 C46.8769388,107.261767 48.946254,106.737033 50.3765997,105.687548 C51.8069454,104.638064 52.5221075,103.123105 52.5221075,101.142627 C52.5221075,99.3314196 51.9212021,97.9391809 50.7193731,96.9658688 C49.5175442,95.9925566 47.8079259,95.5059078 45.5904669,95.5059078 L37.3131231,95.5059078 Z M37.3131231,124.070361 L45.8951544,124.070361 C48.6542828,124.070361 50.7447567,123.520236 52.1666388,122.41997 C53.5885209,121.319704 54.2994513,119.711648 54.2994513,117.595752 C54.2994513,115.479856 53.5588988,113.884494 52.0777716,112.809619 C50.5966444,111.734744 48.3919138,111.197314 45.4635138,111.197314 L37.3131231,111.197314 L37.3131231,124.070361 Z M86.7232794,123.994189 L69.0514044,123.994189 L69.0514044,91.4687985 L64.4810919,91.4687985 L64.4810919,128.10747 L86.7232794,128.10747 L86.7232794,123.994189 Z M115.871717,128.10747 L115.313123,126.520556 C114.940725,125.462608 114.513321,124.24387 114.030897,122.864306 C113.548472,121.484742 113.121068,120.266004 112.74867,119.208056 L112.190076,117.621142 L97.6158575,117.621142 L93.9342169,128.10747 L89.1353888,128.10747 L102.643201,91.4687985 L107.162733,91.4687985 L120.670545,128.10747 L115.871717,128.10747 Z M104.826795,97.0293453 L104.230115,98.7178219 C103.832327,99.8434786 103.345678,101.235717 102.770154,102.89458 C102.194631,104.553442 101.614884,106.21228 101.030897,107.871142 C100.446909,109.530005 99.9560288,110.922243 99.5582403,112.0479 L98.9615606,113.736377 L110.844373,113.736377 L104.979139,97.0293453 L104.826795,97.0293453 Z M140.246717,128.716845 C144.29231,128.716845 147.631144,127.743548 150.263318,125.796923 C152.895493,123.850299 154.62627,121.065822 155.455701,117.443408 L150.834608,117.443408 C150.174448,119.677794 148.921856,121.412803 147.076795,122.648486 C145.231734,123.884169 142.963527,124.502002 140.272108,124.502002 C136.649694,124.502002 133.772118,123.169007 131.639295,120.502978 C129.506472,117.836949 128.440076,114.261139 128.440076,109.775439 C128.440076,105.323594 129.514935,101.760479 131.664686,99.085986 C133.814436,96.4114934 136.675084,95.0742672 140.246717,95.0742672 C142.870428,95.0742672 145.147098,95.7978928 147.076795,97.2451657 C149.006492,98.6924385 150.259084,100.617875 150.834608,103.021533 L155.455701,103.021533 C154.880178,99.3652646 153.200181,96.4242132 150.415662,94.1982907 C147.631143,91.9723681 144.241529,90.8594235 140.246717,90.8594235 C135.236275,90.8594235 131.23306,92.5732735 128.236951,96.001025 C125.240843,99.4287765 123.742811,104.020202 123.742811,109.775439 C123.742811,115.581458 125.232379,120.18981 128.211561,123.600634 C131.190742,127.011459 135.202421,128.716845 140.246717,128.716845 Z M165.713514,128.10747 L165.713514,115.310595 L169.674451,110.943408 L183.410779,128.10747 L189.250623,128.10747 L172.848279,107.693408 L187.90492,91.4687985 L182.141248,91.4687985 L165.96742,109.343798 L165.713514,109.343798 L165.713514,91.4687985 L161.143201,91.4687985 L161.143201,128.10747 L165.713514,128.10747 Z M204.408826,91.4687985 L216.723279,91.4687985 C222.1569,91.4687985 226.397092,93.0768553 229.443983,96.2930172 C232.490873,99.5091791 234.014295,104.003275 234.014295,109.775439 C234.014295,115.547603 232.495104,120.045931 229.456678,123.270556 C226.418251,126.495182 222.173827,128.10747 216.723279,128.10747 L204.408826,128.10747 L204.408826,91.4687985 Z M208.979139,95.5820797 L208.979139,123.994189 L216.418592,123.994189 C220.565748,123.994189 223.756471,122.766988 225.990858,120.312548 C228.225244,117.858109 229.34242,114.362701 229.34242,109.82622 C229.34242,105.238958 228.229475,101.71816 226.003553,99.2637203 C223.77763,96.809281 220.582675,95.5820797 216.418592,95.5820797 L208.979139,95.5820797 Z M244.551404,95.5312985 L244.551404,109.572314 L253.31117,109.572314 C255.664046,109.572314 257.479458,108.962945 258.757459,107.744189 C260.03546,106.525433 260.674451,104.790424 260.674451,102.539111 C260.674451,100.338579 260.005838,98.6204974 258.668592,97.3848141 C257.331346,96.1491308 255.477849,95.5312985 253.108045,95.5312985 L244.551404,95.5312985 Z M244.551404,113.609423 L244.551404,128.10747 L239.981092,128.10747 L239.981092,91.4687985 L253.71742,91.4687985 C257.255198,91.4687985 260.086225,92.4632547 262.210584,94.4521969 C264.334944,96.4411391 265.397108,99.0859695 265.397108,102.386767 C265.397108,104.94277 264.745421,107.151732 263.442029,109.01372 C262.138637,110.875709 260.335921,112.170618 258.033826,112.898486 L266.514295,128.10747 L261.156873,128.10747 L253.31117,113.609423 L244.551404,113.609423 Z M294.139295,123.994189 L276.010389,123.994189 L276.010389,111.400439 L293.199842,111.400439 L293.199842,107.337939 L276.010389,107.337939 L276.010389,95.5820797 L294.139295,95.5820797 L294.139295,91.4687985 L271.440076,91.4687985 L271.440076,128.10747 L294.139295,128.10747 L294.139295,123.994189 Z M298.709608,118.027392 C298.929661,121.260481 300.279582,123.850299 302.759412,125.796923 C305.239242,127.743548 308.41727,128.716845 312.293592,128.716845 C316.508457,128.716845 319.847291,127.739316 322.310193,125.784228 C324.773096,123.82914 326.004529,121.175846 326.004529,117.824267 C326.004529,115.200556 325.175111,113.101619 323.516248,111.527392 C321.857386,109.953166 319.132153,108.692111 315.340467,107.744189 L311.506483,106.728564 C309.018189,106.085332 307.228168,105.319389 306.136365,104.430713 C305.044563,103.542036 304.49867,102.403701 304.49867,101.015673 C304.49867,99.2213937 305.247686,97.7656791 306.74574,96.648486 C308.243795,95.5312929 310.177695,94.9727047 312.547498,94.9727047 C314.934229,94.9727047 316.87236,95.5397563 318.361951,96.6738766 C319.851542,97.8079969 320.697888,99.3568095 320.901014,101.320361 L325.471326,101.320361 C325.369763,98.2396164 324.125635,95.7259697 321.738904,93.7793453 C319.352174,91.832721 316.339183,90.8594235 312.699842,90.8594235 C308.891229,90.8594235 305.780909,91.8242576 303.368787,93.7539547 C300.956666,95.6836519 299.750623,98.1719082 299.750623,101.218798 C299.750623,106.009187 303.000591,109.233764 309.500623,110.892627 L314.197889,112.111377 C316.669255,112.737682 318.46774,113.550174 319.593397,114.548877 C320.719053,115.54758 321.281873,116.825562 321.281873,118.382861 C321.281873,120.177141 320.473613,121.662477 318.857068,122.838916 C317.240524,124.015354 315.196599,124.603564 312.725233,124.603564 C310.118449,124.603564 307.951804,124.002659 306.225233,122.80083 C304.498661,121.599001 303.525364,120.007871 303.305311,118.027392 L298.709608,118.027392 Z M329.889295,118.027392 C330.109348,121.260481 331.45927,123.850299 333.9391,125.796923 C336.41893,127.743548 339.596958,128.716845 343.473279,128.716845 C347.688144,128.716845 351.026978,127.739316 353.489881,125.784228 C355.952784,123.82914 357.184217,121.175846 357.184217,117.824267 C357.184217,115.200556 356.354798,113.101619 354.695936,111.527392 C353.037073,109.953166 350.31184,108.692111 346.520154,107.744189 L342.68617,106.728564 C340.197876,106.085332 338.407855,105.319389 337.316053,104.430713 C336.22425,103.542036 335.678358,102.403701 335.678358,101.015673 C335.678358,99.2213937 336.427373,97.7656791 337.925428,96.648486 C339.423482,95.5312929 341.357382,94.9727047 343.727186,94.9727047 C346.113916,94.9727047 348.052048,95.5397563 349.541639,96.6738766 C351.03123,97.8079969 351.877575,99.3568095 352.080701,101.320361 L356.651014,101.320361 C356.549451,98.2396164 355.305323,95.7259697 352.918592,93.7793453 C350.531861,91.832721 347.518871,90.8594235 343.879529,90.8594235 C340.070917,90.8594235 336.960596,91.8242576 334.548475,93.7539547 C332.136353,95.6836519 330.930311,98.1719082 330.930311,101.218798 C330.930311,106.009187 334.180278,109.233764 340.680311,110.892627 L345.377576,112.111377 C347.848943,112.737682 349.647427,113.550174 350.773084,114.548877 C351.898741,115.54758 352.461561,116.825562 352.461561,118.382861 C352.461561,120.177141 351.6533,121.662477 350.036756,122.838916 C348.420211,124.015354 346.376287,124.603564 343.90492,124.603564 C341.298136,124.603564 339.131491,124.002659 337.40492,122.80083 C335.678349,121.599001 334.705051,120.007871 334.484998,118.027392 L329.889295,118.027392 Z" id="BLACK-TIE-BLACK-DRES" fill="#FFFFFF" transform="translate(194.963514, 79.288134) rotate(-2.000000) translate(-194.963514, -79.288134) "></path>
                <rect id="Rectangle" stroke="#FFFFFF" transform="translate(175.895794, 84.533032) rotate(1.000000) translate(-175.895794, -84.533032) " x="1.89579393" y="3.53303208" width="348" height="162"></rect>
                <rect id="Rectangle" stroke="#FFFFFF" transform="translate(183.895794, 92.533032) rotate(1.000000) translate(-183.895794, -92.533032) " x="9.89579393" y="11.5330321" width="348" height="162"></rect>
                <path d="M140.344118,217.666647 L146.058962,202.165671 L144.028689,202.165671 L139.42029,215.314108 L139.355837,215.314108 L134.747439,202.165671 L132.717165,202.165671 L138.432009,217.666647 L140.344118,217.666647 Z M154.717165,201.907858 C156.915744,201.907858 158.655961,202.627578 159.937868,204.067038 C161.219776,205.506498 161.86072,207.457976 161.86072,209.92153 C161.86072,212.377923 161.219776,214.32582 159.937868,215.76528 C158.655961,217.204741 156.915744,217.92446 154.717165,217.92446 C152.518586,217.92446 150.778369,217.204741 149.496462,215.76528 C148.214555,214.32582 147.57361,212.377923 147.57361,209.92153 C147.57361,207.457976 148.214555,205.506498 149.496462,204.067038 C150.778369,202.627578 152.518586,201.907858 154.717165,201.907858 Z M154.717165,203.691061 C153.134475,203.691061 151.879442,204.25144 150.952028,205.372214 C150.024615,206.492988 149.560915,208.009411 149.560915,209.92153 C149.560915,211.826488 150.024615,213.339331 150.952028,214.460104 C151.879442,215.580878 153.134475,216.141257 154.717165,216.141257 C156.299855,216.141257 157.554888,215.580878 158.482302,214.460104 C159.409715,213.339331 159.873415,211.826488 159.873415,209.92153 C159.873415,208.009411 159.409715,206.492988 158.482302,205.372214 C157.554888,204.25144 156.299855,203.691061 154.717165,203.691061 Z M174.020876,215.926413 L166.544314,215.926413 L166.544314,202.165671 L164.61072,202.165671 L164.61072,217.666647 L174.020876,217.666647 L174.020876,215.926413 Z M178.425173,202.165671 L176.491579,202.165671 L176.491579,212.231101 C176.491579,213.885406 177.037635,215.24786 178.129763,216.318503 C179.221891,217.389146 180.727572,217.92446 182.646853,217.92446 C184.573295,217.92446 186.080766,217.389146 187.169314,216.318503 C188.257861,215.24786 188.802126,213.885406 188.802126,212.231101 L188.802126,202.165671 L186.868532,202.165671 L186.868532,212.102194 C186.868532,213.269518 186.501511,214.234515 185.767458,214.997214 C185.033405,215.759913 183.993214,216.141257 182.646853,216.141257 C181.307653,216.141257 180.269252,215.759913 179.531618,214.997214 C178.793984,214.234515 178.425173,213.269518 178.425173,212.102194 L178.425173,202.165671 Z M207.429079,217.666647 L207.429079,202.165671 L205.183962,202.165671 L199.834353,215.099265 L199.748415,215.099265 L194.398806,202.165671 L192.153689,202.165671 L192.153689,217.666647 L193.958376,217.666647 L193.958376,205.721335 L194.033571,205.721335 L198.974978,217.559226 L200.60779,217.559226 L205.549196,205.721335 L205.624392,205.721335 L205.624392,217.666647 L207.429079,217.666647 Z M220.384157,215.926413 L212.714235,215.926413 L212.714235,210.598288 L219.986696,210.598288 L219.986696,208.879538 L212.714235,208.879538 L212.714235,203.905905 L220.384157,203.905905 L220.384157,202.165671 L210.780642,202.165671 L210.780642,217.666647 L220.384157,217.666647 L220.384157,215.926413 Z M230.062868,217.666647 L230.062868,202.165671 L228.129275,202.165671 L228.129275,217.666647 L230.062868,217.666647 Z M235.348025,217.666647 L235.348025,202.165671 L233.414431,202.165671 L233.414431,217.666647 L235.348025,217.666647 Z" id="VOLUME-II" fill="#FFFFFF" transform="translate(184.032595, 209.916159) rotate(-2.000000) translate(-184.032595, -209.916159) "></path>
            </g>
        </g>
    </g>
</svg>